<svg width="70" height="70" viewBox="0 0 18.521 18.521" xmlns="http://www.w3.org/2000/svg" xmlns:xlink="http://www.w3.org/1999/xlink"><defs><linearGradient id="c" x1="-9.087" x2="53.183" y1="188.36" y2="250.9" gradientUnits="userSpaceOnUse"><stop stop-color="#e81c24" offset="0"/><stop stop-color="#7c1315" offset="1"/></linearGradient><linearGradient id="a" x1="-464.96" x2="-248.84" y1="308.81" y2="308.81" gradientUnits="userSpaceOnUse"><stop stop-color="#e5e5e5" offset="0"/><stop stop-color="#fefefe" offset="1"/></linearGradient><linearGradient id="d" x1="-464.96" x2="-248.84" y1="308.81" y2="308.81" gradientUnits="userSpaceOnUse" xlink:href="#a"/><clipPath id="b"><rect x="3.945" y="198.8" width="41.158" height="41.158" rx="0" fill="#0ff" fill-rule="evenodd" opacity=".5" stroke-linecap="square" stroke-width=".914"/></clipPath></defs><g transform="matrix(.45 0 0 .45 -1.775 -89.458)" clip-path="url(#b)" stroke-width="1.2"><path fill="url(#c)" d="M-17.105 179.67H62.27v79.375h-79.375z"/><g fill="red"><path d="m10.313 237.757 41.77-12.873-55.868-32.433 43.449 32.092-26.412 7.732z"/><path d="m-6.914 194.62 19.689 24.492-14.21 28.784 9.343-2.88L19.08 219.33l.485 6.74 11.572-2.99z"/></g><g fill="maroon"><path d="m10.313 236.137 41.77-12.873-55.868-32.433 43.449 32.092-26.412 7.732z"/><path d="m-6.914 193 19.689 24.492-14.21 28.784 9.343-2.88L19.08 217.71l.485 6.74 11.572-2.99z"/></g><g transform="translate(135.2 123.72)scale(.30971)" fill="url(#d)" stroke-width="3.875"><path d="m-403.24 365.59 134.87-41.564-180.39-104.72 140.29 103.62-85.28 24.963z"/><path d="m-458.86 226.31 63.57 79.08-45.883 92.936 30.169-9.298 36.072-82.934 1.568 21.762 37.364-9.653z"/></g></g></svg>