<?xml version="1.0" encoding="UTF-8" standalone="no"?>
<svg width="250" height="250" version="1.1" viewBox="0 0 66.146667 66.146005" id="svg15" xmlns="http://www.w3.org/2000/svg" xmlns:svg="http://www.w3.org/2000/svg">
	<defs id="defs4" />
	<g transform="matrix(1.8217,0,0,1.8217,-255.90331,-36.184686)" id="g14" style="stroke-width:0.54894">
		<path d="m 173.15,38.018 c 0,8.0212 -6.4922,14.524 -14.501,14.524 -8.0088,0 -14.501,-6.5025 -14.501,-14.524 0,-8.0215 6.4922,-14.524 14.501,-14.524 8.0088,0 14.501,6.5025 14.501,14.524 z" color="#000000" fill="#0098c2" fill-rule="evenodd" id="path10" />
		<path d="m 158.58,23.568 c -0.58262,0 -1.157,0.03334 -1.7216,0.10036 l 0.16092,0.02129 c 0,0 0.3363,0.14813 0.39168,0.20376 0.0566,0.0561 0.0403,0.22577 0.0212,0.31931 -0.0194,0.09371 -0.0742,0.11269 -0.14878,0.22503 -0.0751,0.11267 0.14878,0.05474 0.14878,0.05474 l 0.26113,0.13077 c 0,0 -0.0756,0.0019 -0.18825,0.02129 -0.11265,0.01865 -0.26113,0.05474 -0.26113,0.05474 l -0.0182,0.2068 0.37347,-0.07603 -0.0364,0.13077 -0.26113,0.05778 -0.26416,0.31628 -0.0182,0.5991 0.0577,0.50787 0.14878,0.41056 0.2429,0.03953 0.27935,0.16726 0.3765,-0.01824 0.37347,-0.50484 0.39167,-0.3771 0.11235,-0.20376 0.18825,-0.11252 0.40991,-0.09427 0.52224,-0.11252 c 0,0 0.48671,-0.31836 0.5435,-0.35581 0.0555,-0.03729 1.4028,-0.45009 1.4028,-0.45009 l 0.29755,0.01824 c 0,0 0.0773,-0.37311 0.0212,-0.41056 -0.0568,-0.03729 0.22165,-0.26155 0.22165,-0.26155 0,0 0.0407,-0.01927 0.0516,-0.02433 -1.2946,-0.38033 -2.6634,-0.5839 -4.0808,-0.5839 z m -4.3268,0.65688 c -0.69958,0.21914 -1.3758,0.4908 -2.0252,0.80893 l -0.0212,0.04865 -0.20646,0.11252 -0.25202,0.18855 -0.21558,0.08211 -0.0152,-0.05778 c -0.71552,0.40133 -1.3943,0.86168 -2.0283,1.3746 0.32168,-0.16046 0.87445,-0.444 0.87445,-0.444 l 0.13056,-0.13989 0.21559,-0.02129 0.46758,-0.21289 0.35524,-0.24329 0.0364,0.01824 -0.27023,0.25242 -0.0729,0.09427 -0.21558,0.1034 0.19432,0.02737 -0.0273,0.11252 0.21558,-0.03953 0.21558,-0.17639 0.167,0.05778 0.0759,0.08211 0.23379,-0.0091 -0.009,-0.17638 -0.36436,-0.26458 -0.085,-0.08211 -0.0364,-0.09427 0.15789,0.01824 0.13056,0.11252 0.13967,-0.13989 0.28237,-0.03649 0.27934,-0.19767 -0.0182,-0.12164 0.21559,-0.2068 -0.14271,-0.14902 0.3765,-0.0091 0.32489,0.0091 c 0,0 0.16009,-0.07405 0.18825,-0.02737 0.0282,0.0467 0.27023,0.22503 0.27023,0.22503 l -0.0941,0.08211 -0.38258,0.04865 -0.0941,0.18551 0.28237,0.03953 0.21256,-0.22503 0.23379,-0.01824 0.0394,0.222 c 0,0 -0.26336,0.15194 -0.3006,0.16118 -0.0374,0.01004 -0.19432,0.08211 -0.19432,0.08211 l -0.0121,0.1703 -0.25202,0.02737 -0.26113,-0.04562 -0.12145,0.0091 -0.19736,0.15814 0.16093,0.13989 c 0,0 0.23299,-0.09376 0.27022,-0.12164 0.0372,-0.02787 0.16041,-0.08366 0.18825,-0.03649 0.0281,0.0467 0.18522,0.17639 0.18522,0.17639 l 0.13056,0.25545 0.12145,0.03649 0.37347,0.12164 c 0,0 0.26416,0.06682 0.26416,0.08515 0,0.0188 -0.0273,-0.16118 -0.0273,-0.16118 l -0.19736,-0.23416 c 0,0 -0.01,-0.0638 0.0546,-0.04562 0.0662,0.01865 0.22467,0.15814 0.22467,0.15814 0.0276,0.0094 0.21559,0.12164 0.21559,0.12164 l 0.0759,-0.20376 0.16699,-0.1034 -0.0637,-0.12164 -0.0941,-0.1034 -0.10323,-0.12164 0.009,-0.13989 c 0,0 0.0267,-0.02151 0.0547,-0.03953 0.0278,-0.01849 0.11467,-0.08244 0.1336,-0.04562 0.0183,0.03745 0.20343,0.27978 0.20343,0.27978 l 0.17915,0.03953 0.082,-0.14293 c 0,0 0.23379,-0.02782 0.23379,-0.01824 0,0.0094 0.0182,-0.11252 0.0182,-0.11252 l 0.21557,-0.05474 -0.30666,-0.27369 -0.17003,-0.08211 -0.13056,0.03649 -0.12145,-0.13989 0.13056,-0.12164 0.0577,-0.1703 -0.14878,-0.14901 -0.2338,-0.04562 -0.0577,-0.12164 c 0,0 -0.19652,-0.0275 -0.22468,-0.0091 -0.0284,0.01943 -0.167,-0.1703 -0.167,-0.1703 l -0.10323,-0.13685 z m 7.6849,1.3928 -0.33703,0.18855 c 0,0 0.16867,0.07219 0.22467,0.10948 0.056,0.03745 0.167,-0.03649 0.167,-0.03649 v 0.1703 c 0,0 0.29898,0.16543 0.26113,0.222 -0.0371,0.05594 0.48884,-0.05474 0.48884,-0.05474 l 0.52225,-0.1703 0.11234,-0.20376 -0.20647,-0.1703 -0.95339,0.11252 z m 5.0464,0.64168 c -0.0842,0.02692 -0.17307,0.05778 -0.17307,0.05778 l -0.24897,0.23722 c 0,0 -0.0634,0.11783 -0.0759,0.14902 -0.013,0.03149 0.0182,0.3619 0.0182,0.3619 0,0 0.15008,0.0021 0.10628,0.04562 -0.0438,0.04341 -0.0364,0.24329 -0.0364,0.24329 l 0.17307,0.11556 c 0,0 0.23208,0.07652 0.26416,0.06994 0.0299,-0.0061 0.14184,-0.08174 0.16092,-0.09427 0.0174,-0.01223 0.15386,-0.14858 0.19736,-0.14293 0.0435,0.0069 0.15706,-0.11749 0.17003,-0.07299 0.0122,0.04372 0.0361,0.19975 0.0607,0.23722 0.0249,0.03745 0.11458,0.10462 0.15182,0.19159 0.0371,0.0876 0.086,0.17677 0.0729,0.19463 -0.013,0.01943 -0.1002,0.1034 -0.1002,0.1034 0,0 -0.18416,0.02584 -0.2095,0.0517 -0.0247,0.0246 -0.0571,0.03671 -0.0759,0.02433 -0.0192,-0.01253 0.0632,-0.10071 0.082,-0.12468 0.0189,-0.02553 -0.0448,-0.12472 -0.0699,-0.1186 -0.0253,0.0066 -0.0486,-0.05434 -0.0243,-0.07299 0.0253,-0.0188 0.0182,-0.13989 0.0182,-0.13989 0,0 -0.0362,-0.01874 -0.0547,-0.01217 -0.0188,0.0063 -0.23684,0.09428 -0.23684,0.09428 0,0 -0.11823,0.12425 -0.12449,0.14901 -0.007,0.0257 -0.0593,0.15614 -0.0273,0.24936 0.031,0.09418 0.10627,0.24633 0.10627,0.24633 0,0 0.0821,0.05384 0.0516,0.07907 -0.0306,0.02476 -0.0941,0.1186 -0.0941,0.1186 l -0.14878,0.0061 c 0,0 -0.26916,0.0337 -0.29451,0.04562 -0.0245,0.01284 -0.285,0.09322 -0.27327,0.1186 0.0131,0.02492 -0.0576,0.29195 -0.0576,0.29195 -0.0121,0.0063 -0.27265,0.19463 -0.30363,0.19463 -0.0311,0 -0.22468,0.04866 -0.22468,0.04866 0,0 -0.0882,0.23165 -0.0941,0.21896 -0.006,-0.01269 -0.29148,0.13685 -0.29148,0.13685 0,0 -0.21842,-0.06296 -0.22468,-0.08819 -0.006,-0.02475 -0.0821,-0.07963 -0.0881,-0.06082 -0.007,0.01896 0.0759,0.21192 0.0759,0.24936 0,0.03652 0.0129,0.11264 -0.0121,0.08819 -0.025,-0.02553 -0.15138,-0.06334 -0.17611,-0.07603 -0.0255,-0.01223 -0.23684,-0.0061 -0.23684,-0.0061 h -0.088 c 0,0 -0.10609,0.09499 -0.11235,0.07603 -0.004,0.01327 -0.0121,0.07907 -0.0121,0.07907 l 0.0638,0.06386 0.22468,0.09428 0.21254,0.13077 0.0789,0.19767 0.0941,0.18855 c 0,0 -0.0613,0.3852 -0.0729,0.40446 -0.0138,0.01833 -0.14574,0.10644 -0.14574,0.10644 l -0.40383,-0.0061 c 0,0 -0.19999,-0.04239 -0.21861,-0.04865 -0.0187,-0.0066 -0.30118,0.03708 -0.30666,0.01217 -0.006,-0.02522 -0.0941,-0.01824 -0.0941,-0.01824 l -0.0425,-0.0517 h -0.11234 l -0.0941,0.10644 -0.13664,0.0061 v 0.11252 c 0,0 0.0579,0.25586 0.0516,0.23722 -0.006,-0.01927 -0.0273,0.30108 -0.0273,0.30108 0,0 -0.13213,0.27126 -0.14574,0.29195 0.003,0.0081 -0.009,0.18247 -0.009,0.18247 l 0.082,0.13077 0.0121,0.1551 c 0,0 -0.0615,0.14314 -0.0364,0.13077 0.0252,-0.01269 0.22225,0.0065 0.22772,-0.01824 0.006,-0.02476 0.1276,-0.0799 0.14575,-0.03649 0.0184,0.04356 0.0869,-0.0026 0.10627,0.07299 0.0173,0.07474 0.0874,0.18222 0.0941,0.2007 0.006,0.01943 0.0546,0.03649 0.0546,0.03649 l 0.0182,0.0517 -0.0364,0.03041 -0.15486,0.34974 -0.34613,0.24329 -0.20343,0.13077 -0.0576,0.1551 -0.085,0.10036 -0.0273,0.19463 c 0,0 0.0251,0.24261 0.0121,0.25546 -0.012,0.01238 -0.46455,0.44399 -0.46455,0.44399 l -0.25201,0.05474 -0.13664,0.23722 c 0,0 -0.18531,0.17483 -0.19735,0.2068 -0.013,0.03071 -0.10627,0.14901 -0.10627,0.14901 0,0 0.007,0.25002 0,0.21289 -0.007,-0.03745 -0.27023,0.2068 -0.27023,0.2068 0,0 -0.0484,0.28517 -0.0607,0.29802 -0.0123,0.01191 -0.1356,0.2313 -0.15485,0.22503 -0.0186,-0.0064 -0.0394,0.15131 -0.0394,0.17638 0,0.02476 0.0637,0.09732 0.0637,0.09732 0,0 0.0882,0.17086 0.0941,0.15206 0.003,0.0084 0.006,0.05474 0.006,0.05474 l -0.088,0.08819 c 0,0 0.0941,0.14253 0.0941,0.16118 v 0.38623 l -0.10019,0.21289 -0.0516,0.27675 -0.14878,0.1186 0.006,0.07299 0.13056,0.10644 0.0212,0.11861 -0.0394,0.13077 v 0.13077 l 0.0941,0.21896 c 0,0 0.0937,0.07659 0.11235,0.05778 0.0186,-0.0188 0.20542,0.11777 0.23076,0.16118 0.025,0.04372 0.25505,0.31863 0.25505,0.33148 0,0.01223 0.0364,0.07299 0.0364,0.07299 l 0.11234,0.38319 c 0,0 0.54314,0.44728 0.55565,0.4288 0.0125,-0.01818 0.57994,0.40752 0.57994,0.40752 0,0 0.45548,-0.22575 0.44938,-0.2068 -0.007,0.01833 0.38561,-0.01824 0.38561,-0.01824 l 0.23684,0.03649 0.17307,0.08211 0.63762,-0.29195 0.12449,-0.09732 0.49186,-0.01824 0.23685,0.09428 c 0,0 0.15485,0.23017 0.15485,0.26762 0,0.03745 0.0936,0.20754 0.10627,0.18247 0.012,-0.02429 0.55477,-0.04853 0.57386,-0.04258 0.018,0.0061 0.25505,0.23722 0.25505,0.23722 l -0.0121,0.21896 -0.0364,0.38623 -0.0759,0.18551 -0.0729,0.1703 -0.0212,0.1186 c 0,0 0.56172,0.82411 0.56172,0.83022 0,0.0061 0.1427,0.34364 0.1427,0.34364 l 0.17004,0.42879 0.1002,0.24329 -0.1002,0.13685 0.16092,0.41967 -0.0546,0.41056 -0.24291,0.5322 -0.10627,0.3923 0.0303,0.52611 0.29149,0.60519 0.30666,0.69338 0.0303,0.76027 0.13966,0.26155 c 2.78,-2.6423 4.512,-6.3777 4.512,-10.519 0,-0.69717 -0.0507,-1.3849 -0.14575,-2.0557 l -0.20646,-0.3771 c 0,0 -0.23609,-0.58616 -0.26114,-0.61735 -0.0244,-0.03103 -0.11887,-0.18858 -0.0881,-0.18247 0.0311,0.0064 0.25505,-0.02433 0.25505,-0.02433 0,0 0.0658,0.07948 0.10627,0.12773 -0.0804,-0.36595 -0.17193,-0.72763 -0.27933,-1.0826 -0.0135,0.02968 -0.0292,0.05814 -0.0577,0.07603 -0.0746,0.04717 -0.18646,0.11056 -0.25202,0.06387 -0.0649,-0.04701 -0.3295,-0.03675 -0.35829,-0.02737 -0.0277,0.0094 -0.34487,-0.01031 -0.38259,0.05474 -0.0372,0.06582 -0.27712,0.01911 -0.31577,0 -0.0372,-0.01849 -0.49716,-0.20394 -0.53439,-0.21289 -0.0372,-0.0092 -0.272,-0.11185 -0.30972,-0.13989 -0.0372,-0.02838 -0.27026,-0.05726 -0.27934,-0.08515 -0.01,-0.02822 0.0198,-0.06719 -0.0182,-0.05778 -0.0366,0.0086 -0.3089,0.09422 -0.34613,0.12164 -0.038,0.02915 -0.12145,0.1034 -0.12145,0.1034 0,0 -0.11262,0.11352 -0.10324,0.19767 0.0101,0.0843 0.11314,0.15098 0.0759,0.19767 -0.0372,0.0467 -0.16699,0.10036 -0.16699,0.10036 0,0 -0.14227,-0.13037 -0.18826,-0.14901 -0.0468,-0.0188 -0.48581,-0.08515 -0.48581,-0.08515 l -0.17914,-0.20376 c 0,0 -0.2785,-0.18827 -0.30666,-0.19767 -0.0283,-0.0093 -0.33838,8.09e-4 -0.38562,-0.03649 -0.0469,-0.03807 -0.19576,-0.23461 -0.27023,-0.22503 -0.0749,0.0093 -0.0462,-0.11212 -0.0182,-0.13077 0.0278,-0.01865 0.11245,-0.17875 0.10323,-0.2068 -0.01,-0.02838 0.0477,-0.18746 -0.0455,-0.23416 -0.0934,-0.04795 -0.0303,-0.2068 -0.0303,-0.2068 0,0 0.0951,-0.01824 0.0577,-0.01824 -0.0374,0 -0.17788,0.01022 -0.21559,-0.03649 -0.0368,-0.04685 -0.0487,-0.06715 -0.085,-0.04865 -0.0382,0.01896 -0.26986,0.05806 -0.29755,0.04865 -0.0283,-0.0092 -0.2541,0.01824 -0.29149,0.01824 -0.0372,0 0.0102,0.0095 -0.0364,0 -0.0474,-0.0094 -0.23382,0.0757 -0.2429,0.11252 -0.009,0.03745 -0.19636,-0.0086 -0.22468,0 -0.0285,0.0094 -0.3006,0.0091 -0.3006,0.0091 l -0.44634,0.07603 c 0,0 -0.30046,0.15098 -0.30971,0.19767 -0.009,0.04686 -0.10272,0.12172 -0.13056,0.13989 -0.0277,0.01896 -0.19615,-0.0025 -0.20647,-0.03041 -0.009,-0.02803 -0.30972,0.01217 -0.30972,0.01217 0,0 -0.12049,-0.0679 -0.15788,-0.03953 -0.0372,0.02806 -0.0364,-0.12164 -0.0364,-0.12164 l 0.0455,-0.11252 0.17004,-0.11252 0.40079,-0.07299 0.19736,-0.13077 0.12145,-0.04866 0.0729,-0.19463 c 0,0 0.13994,-0.02924 0.13056,-0.05778 -0.009,-0.02806 -0.0455,-0.15814 -0.0455,-0.15814 l 0.27022,-0.42272 0.38563,-0.18551 0.0637,-0.13381 c 0,0 -0.0367,-0.16611 -0.009,-0.19463 0.0278,-0.02822 0.27934,-0.08515 0.27934,-0.08515 l 0.31881,0.1034 c 0,0 0.16923,-0.11196 0.20647,-0.13077 0.0372,-0.01896 0.21558,-0.12164 0.21558,-0.12164 0,0 0.0171,-0.08528 0.0547,-0.07603 0.0374,0.0092 0.1965,-0.02626 0.21558,0.04865 0.0186,0.0749 0.15789,0.30715 0.15789,0.30715 l 0.21558,0.22503 0.20647,0.16118 0.25202,0.09123 c 0,0 0.14826,0.13049 0.17611,0.13989 0.0281,0.0091 0.17003,0.1703 0.17003,0.1703 l 0.0729,0.13077 c 0,0 -0.0446,0.10201 -0.082,0.14901 -0.0372,0.04623 -0.15098,0.16817 -0.17914,0.15814 -0.0282,-0.0086 -0.2429,-0.04562 -0.2429,-0.04562 l -0.2338,0.02737 c 0,0 -0.0379,0.0567 0.0273,0.1034 0.0654,0.0467 0.14139,0.03873 0.20648,0.07603 0.0665,0.03729 0.23378,0.11252 0.23378,0.11252 0,0 0.11235,0.01773 0.11235,0.04562 0,0.02822 0.0367,-0.07455 0.0273,-0.13989 -0.009,-0.06535 -0.017,-0.1483 0.0486,-0.16726 0.0659,-0.01865 0.167,-0.0021 0.167,-0.03041 0,-0.02787 0.0303,-0.06386 0.0303,-0.06386 l 0.082,-0.1034 -0.009,-0.06387 0.085,-0.0669 c 0,0 -0.047,-0.05592 -0.085,-0.1034 -0.0369,-0.04701 -0.0756,-0.07479 -0.0486,-0.12164 0.0286,-0.04654 0.12231,-0.11364 0.17003,-0.07603 0.0465,0.03729 0.18854,0.05623 0.17915,0.1034 -0.009,0.04638 -7.4e-4,0.11285 0.0182,0.07603 0.018,-0.03776 0.009,-0.18855 0.009,-0.18855 0,0 -0.0741,-0.10312 -0.13967,-0.11252 -0.0648,-0.0097 -0.23607,-0.09387 -0.28238,-0.11252 -0.0465,-0.0188 -0.13055,-0.06386 -0.13055,-0.06386 0,0 0.037,-0.10368 -0.0182,-0.09428 -0.0566,0.0092 -0.22468,-0.01805 -0.22468,-0.04562 0,-0.02869 -0.1675,-0.16113 -0.1761,-0.18855 -0.009,-0.02869 -0.16093,-0.23416 -0.16093,-0.23416 0,0 -0.0822,-0.08447 -0.0911,-0.11252 -0.01,-0.02822 -0.0207,-0.07443 -0.0394,-0.14902 -0.0192,-0.07491 0.18837,-0.26205 0.17914,-0.23416 -0.01,0.0276 0.0471,0.06487 0.085,0.14902 0.0368,0.08462 0.18466,0.22673 0.20344,0.28282 0.0184,0.05594 0.22423,0.21295 0.27022,0.23113 0.0476,0.01849 0.0762,0.07522 0.17004,0.11252 0.0939,0.0376 0.0852,0.05595 0.20647,0.11252 0.12093,0.05626 0.13989,0.07597 0.15789,0.1034 0.0194,0.02854 0.0928,0.02021 0.12145,0.0669 0.0278,0.04654 0.0668,0.0567 0.0668,0.1034 0,0.04654 0.0379,0.04618 0.0182,0.13989 -0.0183,0.09355 -0.046,0.12125 -0.0364,0.13989 0.009,0.01911 0.17735,0.36494 0.24291,0.36494 0.0652,0 0.25876,0.07667 0.23076,0.18855 -0.0279,0.1122 0.12145,0.26155 0.12145,0.26155 0,0 0.12619,0.0068 0.21256,0.02129 0.004,-0.06534 -0.0101,-0.17019 0.0607,-0.20983 0.0832,-0.04685 0.20415,-0.09367 0.18521,-0.13989 -0.0191,-0.0467 -0.0379,-0.12972 -0.11235,-0.18551 -0.0738,-0.05594 -0.14838,-0.08682 -0.16699,-0.17943 -0.0183,-0.09386 -0.0476,-0.21719 0.0364,-0.17943 0.084,0.03713 0.15918,0.21682 0.19735,0.09428 0.0368,-0.12144 0.12909,-0.2046 0.19433,-0.17638 0.0662,0.02803 0.18853,0.07507 0.17914,0.11252 -0.01,0.03745 0.085,0.33757 0.085,0.33757 0,0 0.0361,0.02718 0.0547,0.16726 0.0186,0.14009 0.13975,0.17819 0.12145,0.22503 -0.019,0.04638 -0.0743,0.07516 0.0759,0.09428 0.14879,0.0188 0.28846,0.04466 0.28846,0.08211 0,0.0376 0.12393,0.05758 0.1427,0.08515 0.0183,0.02822 0.12985,0.0833 0.14878,0.02737 0.0187,-0.05563 0.057,-0.16782 0.085,-0.14902 0.0281,0.01942 0.26041,0.01905 0.27934,0.09428 0.0145,0.05536 0.10633,0.07025 0.15181,0.08211 -0.16622,-0.42932 -0.35393,-0.84758 -0.55868,-1.256 l -0.33065,-0.08211 -0.20647,-0.1034 -0.11235,-0.12164 h 0.10324 l -0.0364,-0.14901 0.0182,-0.1034 0.0911,-0.05474 0.0455,-0.17943 c -0.5309,-0.91234 -1.1603,-1.7585 -1.8704,-2.5302 -0.0403,0.02222 -0.11672,0.07654 -0.14573,0.08819 -0.0312,0.01238 -0.12378,0.04965 -0.14271,0.0061 -0.0183,-0.04388 -0.0577,-0.11252 -0.0577,-0.11252 0,0 -0.0295,-0.06122 -0.0425,-0.04258 -0.0111,0.01802 -0.082,0.02433 -0.082,0.02433 l -0.16092,0.06082 c 0,0 -0.088,0.06349 -0.10627,0.07603 -0.0192,0.01238 -0.1114,0.01178 -0.14878,0.03041 -0.0372,0.01896 -0.15136,0.11366 -0.18218,0.06994 -0.0316,-0.04341 -0.0496,0.02909 -0.0881,-0.03953 -0.0364,-0.06848 -0.0228,-0.14362 -0.0668,-0.13077 -0.043,0.01253 -0.14311,0.03894 -0.15485,0.06387 -0.013,0.02492 -0.0275,0.02374 -0.0516,0.04866 -0.0251,0.02475 -0.20648,0.04562 -0.20648,0.04562 v -0.0152 l 0.20648,-0.17334 0.0455,-0.1703 c 0,0 0.19158,0.03286 0.19736,0.05778 0.006,0.0246 0.0512,-0.0562 0.1002,-0.01217 0.0504,0.04356 0.112,0.03826 0.11841,0.07603 0.005,0.03761 0.0425,0.07982 0.0486,0.05474 0.006,-0.02507 0.006,-0.10644 0.006,-0.10644 0,0 -0.0534,-0.02923 -0.085,-0.04866 -0.0314,-0.01849 -0.0252,-0.07625 0.006,-0.09428 0.0307,-0.01865 0.11752,-0.07081 0.14271,-0.0517 0.025,0.01818 0.13663,-0.02433 0.13663,-0.02433 0,0 0.0181,-0.03686 0.0303,-0.05474 0.013,-0.01942 0.0759,-0.18855 0.0759,-0.18855 0,0 -0.0455,-0.01961 -0.0577,-0.07603 -0.002,-0.01076 -3.9e-4,-0.02575 0.003,-0.04258 -0.49376,-0.47095 -1.0226,-0.90671 -1.5789,-1.3046 z m -13.964,0.18247 c -0.0188,0.01942 -0.085,0.08515 -0.085,0.08515 l -0.61637,-0.05778 -0.21559,0.37406 -0.0455,0.19767 c 0,0 -0.33824,0.33876 -0.37953,0.36494 0.0247,-0.0072 0.18218,0.14902 0.18218,0.14902 l -0.13968,0.33757 -0.53438,0.3102 -0.26113,0.03649 c 0,0 -0.15818,0.58022 -0.14878,0.61735 0.009,0.03776 -0.21559,0.13989 -0.21559,0.13989 l -0.15789,0.11252 -0.0668,-0.20376 c 0,0 -0.0717,-0.15787 -0.10019,-0.19767 0.0418,0.01724 0.19432,0.03649 0.19432,0.03649 l 0.0273,-0.13077 -0.14878,0.0091 0.0637,-0.21592 0.14271,-0.23416 -0.48884,-0.0365 -0.10931,-0.13077 -0.24594,-0.0365 -0.0182,-0.1034 -0.167,-0.1034 -0.20647,-0.09428 -0.22467,0.02737 -0.009,-0.19463 0.0547,-0.18855 -0.19433,-0.03346 c -2.8894,2.6009 -4.7273,6.3516 -4.8004,10.531 l 0.22773,0.05474 0.36739,-0.11252 0.23379,0.11252 0.35524,0.41056 0.36436,0.09428 0.37348,0.13077 h 0.1761 l 0.0485,0.21592 c 0,0 0.16908,0.21524 0.20647,0.24329 0.0371,0.02803 0.009,0.27066 0.009,0.27066 l 0.15788,0.08515 0.18522,0.19767 0.12145,0.11252 0.1336,0.14902 0.082,-0.05778 0.17003,0.04866 0.24291,0.22503 0.15789,-0.09427 -0.0455,-0.17943 0.14878,-0.14901 h 0.13057 l 0.13966,0.11252 -0.009,0.13077 0.17002,0.27066 0.009,0.76027 -0.15181,0.24329 -0.20344,0.13989 -0.009,0.22503 -0.21558,0.08515 -0.085,0.29802 -0.13056,0.26155 0.0273,0.22503 0.18825,0.1703 -0.17003,0.17639 -0.12145,0.17943 0.11233,0.35581 c 0,0 0.0547,0.1771 0.0547,0.15814 0,-0.01865 0.17914,0.12164 0.17914,0.12164 l 0.32792,0.65385 0.31578,0.46225 c 0,0 0.46427,0.92931 0.47366,0.93667 0.1394,0.10264 1.1538,0.83632 1.1538,0.83632 l 0.1761,0.91234 0.0486,1.922 0.14878,0.55044 -0.0152,0.25242 c 0.78627,0.54355 1.6287,1.0116 2.5171,1.3928 0.0763,1.06e-4 0.21558,0.0152 0.21558,0.0152 l 0.42509,-0.11252 c 0,0 0.16114,-0.28772 0.14878,-0.33757 -0.0125,-0.04983 -0.0121,-0.21289 -0.0121,-0.21289 0,0 -7.4e-4,-0.11137 -0.1002,-0.12469 -0.10029,-0.01206 -0.0996,-0.04794 -0.12449,-0.14901 -0.0253,-0.0995 -0.10019,-0.21289 -0.10019,-0.21289 l -0.12449,0.02433 0.11234,-0.10948 0.24897,0.18551 0.37347,0.06387 0.28845,-0.28891 0.19736,-0.48658 0.088,-0.3619 h 0.18825 l 0.19736,-0.3619 0.0759,-0.33757 -0.0637,-0.41359 0.0881,-0.14902 0.64979,-0.43489 0.4858,-0.16422 0.16093,-0.12469 c 0,0 0.24896,-0.3366 0.24896,-0.37406 0,-0.03745 0.1002,-0.52307 0.1002,-0.52307 0,0 0.11302,-0.57397 0.1002,-0.61126 -0.012,-0.03807 0.0253,-0.5379 0,-0.55044 -0.025,-0.01223 0.0121,-0.14902 0.0121,-0.14902 l 0.47367,-0.67514 0.22467,-0.51091 c 0,0 0.16183,-0.2634 0.13664,-0.31324 -0.0253,-0.04999 -0.16093,-0.47442 -0.16093,-0.47442 0,0 -0.29974,-0.0629 -0.31274,-0.10036 -0.0123,-0.03729 -0.52266,-0.48695 -0.53439,-0.47442 -0.0133,0.01223 -0.21182,-0.2 -0.23685,-0.13685 -0.0244,0.06237 -0.41293,0.06386 -0.41293,0.06386 l -0.40991,-0.10036 c 0,0 -0.17371,0.1236 -0.13663,0.07299 0.0374,-0.04983 0.0123,-0.34833 0,-0.29802 -0.0123,0.04936 -0.62549,-0.26155 -0.62549,-0.26155 l -0.21255,0.18551 v -0.23722 l -0.32184,-0.19767 0.0364,-0.26458 -0.14878,-0.12468 c 0,0 -0.0239,0.03692 -0.0364,0.01217 -0.0123,-0.02475 -0.1002,-0.52307 -0.1002,-0.52307 l -0.47366,-0.38623 -0.57386,-0.02737 -0.52528,-0.28588 -0.11234,-0.26155 c 0,0 -0.29755,-0.13878 -0.29755,-0.17638 0,-0.03729 -0.0867,-0.01133 -0.11234,-0.02433 -0.0242,-0.01206 -0.0121,-0.13685 -0.0121,-0.13685 l -0.13663,-0.11252 -0.0516,-0.03346 -0.12145,-0.03649 -0.0729,-0.10644 c 0,0 0.2709,-0.1192 0.2429,-0.10948 -0.0274,0.0088 -0.60726,0.09123 -0.60726,0.09123 l -0.0577,0.11252 -0.27022,-0.13989 -0.45849,-0.02737 c 0,0 -0.32819,-0.12997 -0.31881,-0.16726 0.01,-0.0376 -0.10323,-0.17942 -0.10323,-0.17942 0,0 -0.0724,0.17902 -0.0911,0.19767 -0.0184,0.01865 -0.25202,0.21289 -0.25202,0.21289 l 0.0182,0.30108 -0.16093,-0.16726 0.11234,-0.16118 v -0.22505 c 0,-0.02869 0.14271,-0.09123 0.14271,-0.09123 l -0.0577,-0.12164 c 0,0 -0.167,0.04478 -0.167,0.07299 0,0.02787 -0.22467,0.16118 -0.22467,0.16118 l -0.27326,0.10036 h -0.11842 c 0,0 -0.12287,0.19693 -0.15181,0.2068 -0.0277,0.0095 -0.0182,0.18855 -0.0182,0.18855 0,0 -0.30003,0.33533 -0.31881,0.29802 -0.0186,-0.03729 -0.334,-0.29802 -0.334,-0.29802 l -0.3765,0.04562 -0.21255,0.11252 -0.26416,-0.17638 -0.20344,-0.31931 0.0182,-0.37406 0.11234,-0.41359 0.0455,-0.27066 -0.27934,-0.2068 c 0,0 -0.57083,0.0463 -0.57083,0.01824 0,-0.0276 -0.31029,0.01043 -0.3006,-0.01824 0.009,-0.02772 0.11235,-0.20565 0.11235,-0.23416 0,-0.02822 0.0759,-0.24329 0.0759,-0.24329 l 0.12145,-0.24329 0.15789,-0.46529 0.0941,-0.16118 -0.46758,-0.02737 -0.27935,0.11252 -0.15789,0.46832 -0.79552,0.21289 -0.19735,-0.14902 c 0,0 -0.0192,0.0864 -0.009,0.03953 0.009,-0.0467 -0.24291,-0.3771 -0.24291,-0.3771 l -0.12171,-0.45618 c 0,0 0.31972,-0.94681 0.30972,-0.92754 -0.009,0.01833 0.009,-0.34668 0.009,-0.34668 l 0.99894,-0.65688 0.38258,0.05778 0.0941,0.09123 0.23378,-0.0365 0.2338,-0.23416 0.3006,0.03649 0.28845,-0.05474 0.17914,0.19767 0.26113,-0.1034 0.13967,0.14902 0.085,0.09428 v 0.15814 l -0.0668,0.15206 0.0668,0.33453 0.18521,0.26458 0.12145,0.04562 0.14878,-0.41056 -0.0273,-0.38623 -0.0637,-0.30715 v -0.22503 l 0.38259,-0.46832 0.49492,-0.35581 0.39168,-0.22503 0.34613,-0.37406 -0.0182,-0.35581 0.15181,-0.02737 0.14575,-0.31931 0.15181,0.01824 0.28846,-0.36494 0.48581,-0.16726 0.3006,-0.05778 0.0941,-0.10036 -0.11234,-0.09427 0.23379,-0.34668 0.73783,-0.29195 0.44937,-0.13077 -0.36436,0.23416 0.0729,0.17943 0.27326,-0.07603 0.19432,-0.12164 0.51617,-0.13989 c 0,0 0.0812,-0.13706 0.10019,-0.16118 -0.018,0.0467 0.26417,-0.04562 0.26417,-0.04562 l -0.0577,-0.11252 0.0212,-0.14902 -0.15181,0.05474 -0.22468,0.24329 -0.36435,-0.01824 -0.167,-0.25242 0.15788,-0.21592 c 0,0 0.15802,-0.31731 0.14878,-0.29802 -0.01,0.01818 -0.25201,-0.07603 -0.25201,-0.07603 l -0.36436,0.13077 c -0.0372,0 -0.38254,0.20732 -0.37347,0.17942 0.01,-0.02806 -0.17611,0.1034 -0.17611,0.1034 l 0.47367,-0.38319 0.19735,-0.03041 0.22468,-0.2068 h 1.0748 l 0.36436,-0.07299 0.48581,-0.26155 0.0394,0.04562 -0.20646,0.19767 -0.25203,0.26155 -0.2429,0.26155 -0.12145,0.15814 0.38258,0.01824 c 0,0 0.29946,0.0076 0.32792,0 0.0374,-0.0094 0.0455,0.13077 0.0455,0.13077 l 0.15789,-0.10948 0.085,0.21289 0.28237,-0.21289 -0.085,-0.24329 0.0759,-0.22809 -0.32792,0.01217 v -0.12164 c 0,0 -0.12102,-0.14014 -0.13056,-0.12165 -0.01,0.01896 0.18565,-0.15854 0.17611,-0.13989 -0.009,0.0188 -0.085,-0.09427 -0.085,-0.09427 l 0.22467,-0.28282 -0.1093,-0.31628 -0.0394,-0.16118 -0.28846,-0.13989 -0.10324,-0.13989 -0.13359,-0.1034 0.10323,-0.24329 -0.0455,-0.17638 c 0,0 -0.0847,-0.5811 -0.0941,-0.5626 -0.01,0.01896 -0.39168,0.31931 -0.39168,0.31931 l -0.39168,0.19463 -0.20646,-0.17639 0.0182,-0.23416 0.17915,-0.1703 -0.29149,-0.09123 -0.0182,-0.07603 c 0,0 -0.26088,-0.26178 -0.27934,-0.24329 z m 12.121,0.76027 -0.0881,0.0365 -0.082,0.12164 c 0,0 -0.0758,0.01865 -0.10627,0 -0.0308,-0.0188 -0.0935,1.85e-4 -0.11841,-0.0061 -0.0249,-0.0071 -0.082,0.07299 -0.082,0.07299 0,0 -0.0841,0.09425 -0.10931,0.10036 -0.0249,0.0062 -0.11253,0.10641 -0.10627,0.11252 0.007,0.0062 0.0121,0.08819 0.0121,0.08819 0,0 -0.0175,0.03023 -0.0486,0.03649 -0.031,0.0061 0.0243,0.11252 0.0243,0.11252 l 0.0759,0.03649 c 0,0 -0.0451,0.04534 -0.0698,0.03953 -0.0253,-0.0069 -0.083,0.06073 -0.0394,0.07907 0.0438,0.01818 0.0638,0.04553 0.0576,0.06387 -0.005,0.01942 0.0941,0.03041 0.0941,0.03041 l 0.0789,-0.01824 -0.0546,0.08819 c 0,0 0.0119,0.054 0.0303,0.07907 0.0192,0.02492 0.082,0 0.082,0 0,0 0.14822,-0.02451 0.16699,-0.01824 0.0181,0.006 -0.006,0.06387 -0.006,0.06387 l 0.0577,0.08515 c 0,0 0.0302,0.12708 0.0364,0.16422 0.007,0.03807 -0.0485,0.02433 -0.0485,0.02433 0,0 -0.11963,0.01766 -0.14575,0.01217 -0.0249,-0.0063 -0.0719,0.0446 -0.11538,0.09427 -0.044,0.05093 0.006,0.03041 0.006,0.03041 h 0.0911 c 0,0 0.007,0.06234 0.0121,0.08819 0.006,0.02492 -0.0728,0.04885 -0.0972,0.04258 -0.0249,-0.006 -0.13967,0.0517 -0.13967,0.0517 l 0.006,0.09123 0.13967,0.0152 0.13663,0.01824 0.0243,0.04258 c 0,0 -0.0879,0.0188 -0.11234,0 -0.0249,-0.01865 -0.1002,0.10036 -0.1002,0.10036 l -0.0668,0.07299 -0.14575,0.11252 0.082,0.03953 0.0486,-0.06386 0.12752,0.0061 0.1336,-0.01824 c 0,0 0.0845,-0.10036 0.10323,-0.10036 0.0181,0 0.20951,-0.0061 0.20951,-0.0061 0,0 0.15748,-0.03078 0.1761,-0.01824 0.0186,0.01253 0.14152,0.03662 0.16092,0.04258 0.0183,0.0061 0.26114,-0.06691 0.26114,-0.06691 0,0 0.0514,-0.08152 0.0637,-0.10644 0.013,-0.02492 -0.0694,-0.0481 -0.0881,-0.06691 -0.0186,-0.0188 0.0625,-0.04522 0.1002,-0.06387 0.0371,-0.01865 0.0509,-0.08773 0.0698,-0.1186 0.018,-0.03087 -0.0272,-0.09434 -0.0334,-0.11252 -0.006,-0.01927 -0.0937,-0.01244 -0.11841,-0.01824 -0.0249,-0.0064 -0.13057,0.0061 -0.13057,0.0061 l 0.006,-0.12468 c 0,0 -0.29168,-0.40102 -0.28542,-0.41967 0.006,-0.01818 -0.069,-0.13714 -0.1002,-0.14293 -0.0311,-0.0062 -0.0689,-0.03227 -0.10627,-0.08211 -0.0371,-0.04952 0.0516,-0.11252 0.0516,-0.11252 0,0 0.10271,-0.11209 0.11538,-0.13685 0.0125,-0.02507 -0.012,-0.10017 -0.0303,-0.10644 -0.0189,-0.0061 -0.23684,0.0061 -0.23684,0.0061 0,0 -0.0604,-0.04826 -0.0546,-0.06691 0.007,-0.01958 0.0691,-0.02433 0.0881,-0.02433 0.0177,0 0.12998,-0.21877 0.15485,-0.22503 0.0247,-0.0068 -0.0182,-0.06386 -0.0182,-0.06386 z m -1.0111,0.91234 -0.1002,0.03041 -0.0546,0.08211 c 0,0 -0.0942,0.09834 -0.0759,0.07907 0.0192,-0.01802 0.0694,-0.01582 0.0577,0.0152 -0.013,0.03102 -0.0638,0.06082 -0.0638,0.06082 h -0.0728 l -0.0638,-0.03649 -0.0941,0.01217 -0.0303,0.05474 0.0364,0.08819 -0.0607,0.06387 0.0729,0.06082 0.0759,0.01824 -0.0121,0.08819 -0.082,0.0365 -0.10626,0.06995 -0.0303,0.1186 0.0941,0.05474 0.14878,0.03346 0.15486,-0.03953 0.1336,-0.07299 0.0364,-0.03649 0.21862,-0.0152 0.0243,-0.09123 0.0485,-0.09428 v -0.27066 l 0.11842,-0.06691 -0.0364,-0.17334 -0.18826,-0.04562 -0.14878,-0.02433 z m -16.73,7.9252 c 0,-0.01958 -0.3188,0.25242 -0.3188,0.25242 v 0.02737 c 0,0 0.0288,0.12993 0.0394,0.15814 0.009,0.02787 0.21517,-0.15045 0.23379,-0.22503 0.0186,-0.07459 0.16619,-0.09372 0.20344,-0.11252 0.038,-0.01818 0.0565,0.07603 0.0941,0.07603 0.0378,0 0.20646,0.05778 0.20646,0.05778 l 0.33704,0.10948 0.13056,0.12164 c 0,0 0.0546,0.29948 0.0546,0.33757 0,0.03776 0.25505,0.01824 0.25505,0.01824 l 0.49492,-0.04562 c -9e-5,-8.5e-5 0.15879,-0.09344 0.14878,-0.12164 -0.009,-0.02775 -0.15006,-0.07299 -0.22468,-0.07299 -0.0748,0 -0.3462,-0.26306 -0.36436,-0.31931 -0.0194,-0.05625 -0.62549,-0.2068 -0.62549,-0.2068 0,0 -0.66495,-0.0364 -0.66495,-0.05474 z m 2.1315,0.75724 c -0.0742,0 0,0.08515 0,0.08515 l -0.0273,0.27066 h -0.30971 l -0.009,0.02737 c 0,0 -0.085,0.02891 -0.085,0.08515 1.9e-4,0.0561 0.11368,0.03609 0.16092,0.05474 0.0461,0.01865 0.12003,-0.0091 0.15789,-0.0091 0.0378,0 0.16093,-0.02737 0.16093,-0.02737 0,0 0.0364,0.08432 0.0364,0.11252 0,0.02756 0.19432,-0.0083 0.19432,-0.0365 0,-0.02822 0.0486,-0.1034 0.0486,-0.1034 l 0.23379,-0.04865 c 0,0 0.31828,0.0091 0.34613,0.0091 0.0282,0 0.0475,-0.05519 -0.009,-0.15814 -0.0555,-0.10327 -0.21767,-0.12261 -0.25505,-0.19767 -0.0374,-0.07428 -0.21419,-0.02678 -0.26114,0 -0.0466,0.02838 -0.30732,-0.06387 -0.38258,-0.06387 z" color="#000000" fill="#009600" fill-rule="evenodd" id="path11" />
		<g transform="matrix(0.1089,0,0,0.1089,199.38,4.3912)" fill="#ffffff" stroke-width="0.99999" id="g13">
			<path d="m -403.24,365.59 134.87,-41.564 -180.39,-104.72 140.29,103.62 -85.28,24.963 z" id="path12" />
			<path d="m -458.86,226.31 63.57,79.08 -45.883,92.936 30.169,-9.2976 c 12.024,-27.645 24.048,-55.29 36.072,-82.934 l 1.5684,21.762 37.364,-9.6537 z" id="path13" />
		</g>
	</g>
</svg>