<?xml version="1.0" encoding="UTF-8" standalone="no"?>
<svg width="144.10605" height="144.10605" version="1.1" viewBox="0 0 38.127578 38.127578" id="svg85" xmlns:xlink="http://www.w3.org/1999/xlink" xmlns="http://www.w3.org/2000/svg" xmlns:svg="http://www.w3.org/2000/svg">
	<defs id="defs17">
		<linearGradient id="linearGradient2569">
			<stop stop-color="#f0f" offset="0" id="stop3" />
			<stop stop-color="#0cf4ff" offset="1" id="stop4" />
		</linearGradient>
		<filter id="filter4607-0" x="-0.074489581" y="-0.079262207" width="1.1489792" height="1.1585244" color-interpolation-filters="sRGB">
			<feGaussianBlur stdDeviation="5.9123002" id="feGaussianBlur12" />
		</filter>
		<linearGradient id="linearGradient2469-9-3-9-6" x1="-522.73999" x2="-485.70001" y1="182.85001" y2="182.85001" gradientTransform="rotate(90,-144.2,544.57)" gradientUnits="userSpaceOnUse" xlink:href="#linearGradient2569" />
		<filter id="filter5322" x="-0.12000065" y="-0.11999969" width="1.2400013" height="1.2399994" color-interpolation-filters="sRGB">
			<feGaussianBlur stdDeviation="2.6458333" id="feGaussianBlur13" />
		</filter>
		<linearGradient xlink:href="#linearGradient2569" id="linearGradient86" gradientUnits="userSpaceOnUse" gradientTransform="matrix(0,0.54893,-0.54893,0,119.43069,296.67471)" x1="-522.73999" y1="182.85001" x2="-485.70001" y2="182.85001" />
	</defs>
	<path d="M 19.064333,4.5396524 A 14.52359,14.52359 0 0 0 7.0724081,10.87156 H 31.039241 A 14.52359,14.52359 0 0 0 19.064333,4.5396524 Z M 6.8940059,11.161944 A 14.52359,14.52359 0 0 0 5.9862952,12.788478 H 32.148299 a 14.52359,14.52359 0 0 0 -0.901233,-1.626534 z m -1.1184998,2.062824 a 14.52359,14.52359 0 0 0 -0.651031,1.800161 H 33.007923 A 14.52359,14.52359 0 0 0 32.343279,13.224768 Z M 4.9761542,15.605862 A 14.52359,14.52359 0 0 0 4.6105065,17.663306 H 33.506182 a 14.52359,14.52359 0 0 0 -0.351464,-2.057444 z m -0.401954,2.783349 a 14.52359,14.52359 0 0 0 -0.033759,0.674306 14.52359,14.52359 0 0 0 0.1248103,1.755039 H 33.469255 a 14.52359,14.52359 0 0 0 0.118575,-1.755039 14.52359,14.52359 0 0 0 -0.02382,-0.674306 z m 0.2130343,3.301046 a 14.52359,14.52359 0 0 0 0.8884432,2.966582 H 32.46456 a 14.52359,14.52359 0 0 0 0.873402,-2.966582 z m 1.3465802,3.984134 a 14.52359,14.52359 0 0 0 2.7660582,3.744965 H 29.242121 a 14.52359,14.52359 0 0 0 2.738502,-3.744965 z m 4.1129133,4.907159 a 14.52359,14.52359 0 0 0 8.817462,3.005721 14.52359,14.52359 0 0 0 8.831186,-3.005721 z" fill="url(#linearGradient2469-9-3-9-6)" id="path32" style="fill:url(#linearGradient86);stroke-width:0.999986" />
	<path d="m 217.53,156.58 a 26.458,26.458 0 0 0 -21.846,11.535 h 43.661 A 26.458,26.458 0 0 0 217.53,156.58 Z m -22.171,12.064 a 26.458,26.458 0 0 0 -1.6536,2.9631 h 47.66 a 26.458,26.458 0 0 0 -1.6418,-2.9631 z m -2.0376,3.7579 a 26.458,26.458 0 0 0 -1.186,3.2794 h 50.796 a 26.458,26.458 0 0 0 -1.2108,-3.2794 z m -1.4562,4.3377 a 26.458,26.458 0 0 0 -0.66611,3.7481 h 52.64 a 26.458,26.458 0 0 0 -0.64027,-3.7481 z m -0.73225,5.0705 a 26.458,26.458 0 0 0 -0.0615,1.2284 26.458,26.458 0 0 0 0.22737,3.1972 h 52.473 a 26.458,26.458 0 0 0 0.21601,-3.1972 26.458,26.458 0 0 0 -0.0434,-1.2284 z m 0.38809,6.0136 a 26.458,26.458 0 0 0 1.6185,5.4043 h 48.802 a 26.458,26.458 0 0 0 1.5911,-5.4043 z m 2.4531,7.258 a 26.458,26.458 0 0 0 5.039,6.8223 h 37.058 a 26.458,26.458 0 0 0 4.9888,-6.8223 z m 7.4926,8.9395 a 26.458,26.458 0 0 0 16.063,5.4756 26.458,26.458 0 0 0 16.088,-5.4756 z" fill="url(#linearGradient2469-9-3-9-6)" filter="url(#filter5322)" id="path33" style="fill:url(#linearGradient2469-9-3-9-6);stroke-width:1.8217" transform="matrix(0.54893,0,0,0.54893,-100.34441,-81.411807)" />
	<g transform="matrix(0.10890222,0,0,0.10890222,59.822385,-14.563112)" fill="#ffffff" filter="url(#filter4607-0)" id="g35" style="stroke-width:1.8217">
		<path d="m -403.24,365.59 134.87,-41.564 -180.39,-104.72 140.29,103.62 -85.28,24.963 z" id="path34" />
		<path d="m -458.86,226.31 63.57,79.08 -45.883,92.936 30.169,-9.2976 c 12.024,-27.645 24.048,-55.29 36.072,-82.934 l 1.5684,21.762 37.364,-9.6537 z" id="path35" />
	</g>
	<g transform="matrix(0.10890222,0,0,0.10890222,59.822385,-14.563112)" fill="#ffffff" id="g37" style="stroke-width:1.8217">
		<path d="m -403.24,365.59 134.87,-41.564 -180.39,-104.72 140.29,103.62 -85.28,24.963 z" id="path36" />
		<path d="m -458.86,226.31 63.57,79.08 -45.883,92.936 30.169,-9.2976 c 12.024,-27.645 24.048,-55.29 36.072,-82.934 l 1.5684,21.762 37.364,-9.6537 z" id="path37" />
	</g>
</svg>