<svg width="378" height="128" viewBox="0 0 100.01 33.867" xmlns="http://www.w3.org/2000/svg"><path d="m59.841 28.213 2.335-6.925h1.134l2.335 6.925h-.972l-.628-1.935H61.4l-.628 1.935zm3.949-2.72-1.07-3.266-1.065 3.265zm5.195-1.536h-.047q-.097-.028-.209-.033-.107-.009-.26-.009-.354 0-.703.154t-.66.455v3.689h-.874v-5.195h.874v.772q.48-.424.833-.596.358-.176.693-.176.134 0 .2.009.07.005.153.018zm2.753 4.372q-.535 0-.981-.163-.447-.167-.768-.502-.32-.335-.497-.842-.177-.511-.177-1.2 0-.683.181-1.181.186-.498.493-.837.307-.34.763-.521.46-.186.986-.186.428 0 .823.12.4.122.712.28v.981h-.051q-.093-.079-.242-.181-.144-.103-.354-.21-.181-.093-.428-.162-.246-.07-.474-.07-.679 0-1.093.516-.41.512-.41 1.451 0 .921.396 1.437.4.512 1.107.512.428 0 .814-.177.386-.176.684-.456h.05v.982l-.325.149q-.195.083-.353.125-.224.065-.4.098-.177.037-.456.037m6.409-.116h-.874v-2.958q0-.358-.038-.665-.032-.312-.13-.498-.107-.195-.297-.288-.191-.098-.521-.098-.326 0-.675.177-.344.172-.674.451v3.879h-.874v-7.237h.874v2.619q.39-.35.772-.535.381-.186.805-.186.767 0 1.2.507.432.502.432 1.46zm2.13 0h-.874v-5.195h.874zm.06-6.065h-.995v-.907h.995zm5.307.87-1.958 5.195H82.9l-1.944-5.195h.944l1.423 4.01 1.41-4.01zm2.916 5.316q-1.242 0-1.93-.698-.684-.702-.684-1.99 0-1.27.665-2.019.665-.753 1.74-.753.483 0 .855.14.373.139.652.437.279.297.427.73.15.428.15 1.05v.475h-3.6q0 .907.455 1.386.456.48 1.26.48.289 0 .563-.066.28-.065.503-.167.237-.107.4-.205.163-.102.27-.19h.05v.953q-.153.06-.38.153-.229.089-.41.14-.256.07-.465.107-.205.037-.521.037m1.023-3.297q-.01-.354-.084-.61t-.213-.432q-.154-.196-.396-.298-.237-.102-.59-.102-.35 0-.596.107-.242.102-.442.302-.195.205-.297.456-.103.246-.13.577z" aria-label="Archive"/><path d="M14.672 7.794H8.226V11.7h6.176v1.637H8.226v6.67H6.384V6.157h8.288zm3.624 12.213h-1.749V5.533h1.749zm8.702-2.558v-2.883q-.623.055-1.581.158-.95.093-1.535.27-.698.213-1.153.66-.456.437-.456 1.228 0 .893.502 1.348t1.47.456q.828 0 1.497-.353.67-.363 1.256-.884m0 1.451q-.214.158-.577.447-.353.279-.688.446-.465.242-.902.372-.428.13-1.21.13-.641 0-1.218-.241-.577-.242-1.014-.68-.418-.427-.67-1.05-.25-.633-.25-1.33 0-1.08.455-1.833.456-.763 1.442-1.21.874-.4 2.065-.548 1.19-.158 2.567-.233v-.335q0-.614-.186-.986-.186-.381-.52-.586-.336-.214-.82-.279-.483-.074-.995-.074-.604 0-1.423.186-.818.177-1.637.52h-.102V9.84q.483-.14 1.386-.307t1.786-.167q1.07 0 1.804.167t1.32.605q.568.428.847 1.107.28.679.28 1.656v7.106h-1.74zm7.344 1.358q-1.042 0-1.953-.279-.903-.28-1.498-.595V17.42h.093q.223.177.52.39.308.215.81.447.447.205.977.363.54.158 1.116.158.419 0 .893-.093.474-.102.707-.251.326-.214.465-.456.149-.242.149-.726 0-.623-.344-.939-.335-.316-1.2-.53-.335-.084-.875-.196-.54-.111-.995-.241-1.19-.345-1.73-1.06-.54-.726-.54-1.75 0-1.404 1.061-2.288t2.818-.883q.865 0 1.74.214.874.214 1.47.54v1.869h-.094q-.67-.53-1.497-.837-.819-.307-1.656-.307-.865 0-1.46.362-.596.363-.596 1.098 0 .651.354.977.353.316 1.135.52.39.103.865.205.483.093 1.014.224 1.153.288 1.73.958.586.67.586 1.823 0 .67-.27 1.274-.26.595-.772 1.023-.558.465-1.265.707-.698.242-1.758.242m14.209-.25h-1.749v-5.916q0-.716-.074-1.33-.065-.623-.26-.995-.215-.391-.596-.577-.381-.195-1.042-.195-.65 0-1.348.353-.689.344-1.35.902v7.758h-1.748V5.533h1.749v5.237q.781-.698 1.544-1.07t1.609-.372q1.535 0 2.4 1.014.865 1.005.865 2.92zm11.521-5.47q0 2.595-1.246 4.14-1.237 1.534-3.135 1.534-.772 0-1.368-.177-.595-.176-1.218-.548v4.353h-1.749V9.617h1.749v1.088q.651-.586 1.442-.977.8-.4 1.74-.4 1.785 0 2.78 1.414 1.005 1.414 1.005 3.795m-1.804.195q0-1.776-.568-2.753-.567-.986-1.842-.986-.744 0-1.441.335-.689.325-1.312.846v5.888q.688.335 1.172.456.493.121 1.126.121 1.358 0 2.111-.995t.754-2.912m12.497.084q0 2.623-1.265 4.056-1.265 1.423-3.367 1.423-2.167 0-3.414-1.47-1.237-1.479-1.237-4.009 0-2.604 1.274-4.046 1.284-1.442 3.377-1.442 2.102 0 3.367 1.442 1.265 1.432 1.265 4.046m-1.804 0q0-2.018-.735-2.995-.735-.986-2.093-.986-1.368 0-2.112.986-.735.976-.735 2.995 0 1.953.735 2.967.744 1.005 2.112 1.005 1.349 0 2.083-.986.745-.995.745-2.986m5.716 5.191h-1.749V9.617h1.749zm.12-12.129h-1.99V6.064h1.99zm10.945 12.129h-1.749v-5.916q0-.716-.074-1.33-.065-.623-.26-.995-.215-.391-.596-.577-.381-.195-1.042-.195-.65 0-1.348.353-.689.344-1.35.902v7.758h-1.748V9.617h1.749v1.153q.781-.697 1.544-1.07t1.609-.371q1.535 0 2.4 1.014.865 1.004.865 2.92zm5.949.204q-1.432 0-2.232-.81-.8-.818-.8-2.576v-5.758h-1.182v-1.45h1.182V6.63h1.748v2.986h3.219v1.451h-3.219v4.94q0 .79.028 1.218t.214.8q.158.326.512.493.353.158.958.158.428 0 .828-.12.4-.131.576-.215h.103v1.572q-.493.14-1.005.214-.502.084-.93.084" aria-label="Flashpoint"/></svg>